<svg xmlns="http://www.w3.org/2000/svg" viewBox="0 0 1000 305" style="min-width: 100%;"><g id="activity-diagram-group"><path class="individual" id="ibaff9fc1-38bc-4693-98bc-77714e62554b" d="M 33.333333333333336 35 l 936.6666666666666 0l 6.666666666666667 10 -6.666666666666667 10l -936.6666666666666 0l 6.666666666666667 -10 -6.666666666666667 -10Z" stroke="#7F7F7F" stroke-width="1px" fill="#B1B1B0" style="fill: rgb(177, 177, 176);"/><path class="individual" id="ia66096a5-0283-41ef-9dce-6381f0b07407" d="M 33.333333333333336 65 l 936.6666666666666 0l 6.666666666666667 10 -6.666666666666667 10l -936.6666666666666 0l 6.666666666666667 -10 -6.666666666666667 -10Z" stroke="#7F7F7F" stroke-width="1px" fill="#B1B1B0" style="fill: rgb(177, 177, 176);"/><path class="individual" id="id8460f7f-4fd6-4607-a957-02146e0744f0" d="M 33.333333333333336 95 l 936.6666666666666 0l 6.666666666666667 10 -6.666666666666667 10l -936.6666666666666 0l 6.666666666666667 -10 -6.666666666666667 -10Z" stroke="#7F7F7F" stroke-width="1px" fill="#B1B1B0" style="fill: rgb(177, 177, 176);"/><path class="individual" id="i124eea26-66aa-418a-a6ea-efb71c2205bc" d="M 33.333333333333336 125 l 936.6666666666666 0l 6.666666666666667 10 -6.666666666666667 10l -936.6666666666666 0l 6.666666666666667 -10 -6.666666666666667 -10Z" stroke="#7F7F7F" stroke-width="1px" fill="#B1B1B0"/><path class="individual" id="i4328ff13-63be-413f-ad8a-29ebc8e4ea49" d="M 33.333333333333336 155 l 936.6666666666666 0l 6.666666666666667 10 -6.666666666666667 10l -936.6666666666666 0l 6.666666666666667 -10 -6.666666666666667 -10Z" stroke="#7F7F7F" stroke-width="1px" fill="#B1B1B0"/><path class="individual" id="i5dc97aca-5fdd-4f1e-8b45-51705304b2ec" d="M 33.333333333333336 185 l 936.6666666666666 0l 6.666666666666667 10 -6.666666666666667 10l -936.6666666666666 0l 6.666666666666667 -10 -6.666666666666667 -10Z" stroke="#7F7F7F" stroke-width="1px" fill="#B1B1B0"/><path class="individual" id="iae0dda8f-7d23-4a2e-a9b4-607ab8166304" d="M 33.333333333333336 215 l 936.6666666666666 0l 6.666666666666667 10 -6.666666666666667 10l -936.6666666666666 0l 6.666666666666667 -10 -6.666666666666667 -10Z" stroke="#7F7F7F" stroke-width="1px" fill="#B1B1B0"/><path class="individual" id="iebd620c7-9b64-4023-a960-7b08168e9ea1" d="M 33.333333333333336 245 l 936.6666666666666 0l 6.666666666666667 10 -6.666666666666667 10l -936.6666666666666 0l 6.666666666666667 -10 -6.666666666666667 -10Z" stroke="#7F7F7F" stroke-width="1px" fill="#B1B1B0" style="fill: rgb(177, 177, 176);"/><text class="individualLabel" id="ilbaff9fc1-38bc-4693-98bc-77714e62554b" x="45" y="50" text-anchor="start" font-family="Roboto, Arial, sans-serif" font-size="0.8em">Lifted component</text><text class="individualLabel" id="ila66096a5-0283-41ef-9dce-6381f0b07407" x="45" y="80" text-anchor="start" font-family="Roboto, Arial, sans-serif" font-size="0.8em">Lifting plan</text><text class="individualLabel" id="ild8460f7f-4fd6-4607-a957-02146e0744f0" x="45" y="110" text-anchor="start" font-family="Roboto, Arial, sans-serif" font-size="0.8em">Crane</text><text class="individualLabel" id="il124eea26-66aa-418a-a6ea-efb71c2205bc" x="45" y="140" text-anchor="start" font-family="Roboto, Arial, sans-serif" font-size="0.8em">Lifting equipment</text><text class="individualLabel" id="il4328ff13-63be-413f-ad8a-29ebc8e4ea49" x="45" y="170" text-anchor="start" font-family="Roboto, Arial, sans-serif" font-size="0.8em">Barriers</text><text class="individualLabel" id="il5dc97aca-5fdd-4f1e-8b45-51705304b2ec" x="45" y="200" text-anchor="start" font-family="Roboto, Arial, sans-serif" font-size="0.8em">Operator</text><text class="individualLabel" id="ilae0dda8f-7d23-4a2e-a9b4-607ab8166304" x="45" y="230" text-anchor="start" font-family="Roboto, Arial, sans-serif" font-size="0.8em">Banksman</text><text class="individualLabel" id="ilebd620c7-9b64-4023-a960-7b08168e9ea1" x="45" y="260" text-anchor="start" font-family="Roboto, Arial, sans-serif" font-size="0.8em">Quarantine area</text><rect class="activity" id="a1fc175b6-6a7e-4f0e-8883-1c203567f663" x="150" y="122" width="405" height="116" stroke="#29123b" stroke-dasharray="5,3" stroke-width="1px" fill="#440099" opacity="0.5" style="opacity: 0.5;"/><rect class="activity" id="ae3a3b1a3-222c-454a-b41e-d26fd2470559" x="555" y="122" width="405" height="146" stroke="#29123b" stroke-dasharray="5,3" stroke-width="1px" fill="#e7004c" opacity="0.5"/><text class="activityLabel" id="al1fc175b6-6a7e-4f0e-8883-1c203567f663" x="352.5" y="185" text-anchor="middle" font-family="Roboto, Arial, sans-serif" font-size="0.7em" fill="#441d62">Is equipment safe?</text><text class="activityLabel" id="ale3a3b1a3-222c-454a-b41e-d26fd2470559" x="757.5" y="185" text-anchor="middle" font-family="Roboto, Arial, sans-serif" font-size="0.7em" fill="#441d62">Quarantine unsafe equipm...</text><rect class="participation" id="p1fc175b6-6a7e-4f0e-8883-1c203567f663124eea26-66aa-418a-a6ea-efb71c2205bc" x="150" y="125" width="405" height="20" stroke="#29123b" stroke-dasharray="5,3" stroke-width="1px" fill="#F2F2F2" opacity="0.5"/><rect class="participation" id="p1fc175b6-6a7e-4f0e-8883-1c203567f6635dc97aca-5fdd-4f1e-8b45-51705304b2ec" x="150" y="185" width="405" height="20" stroke="#29123b" stroke-dasharray="5,3" stroke-width="1px" fill="#F2F2F2" opacity="0.5" style="opacity: 0.5;"/><rect class="participation" id="p1fc175b6-6a7e-4f0e-8883-1c203567f663ae0dda8f-7d23-4a2e-a9b4-607ab8166304" x="150" y="215" width="405" height="20" stroke="#29123b" stroke-dasharray="5,3" stroke-width="1px" fill="#F2F2F2" opacity="0.5" style="opacity: 0.5;"/><rect class="participation" id="pe3a3b1a3-222c-454a-b41e-d26fd2470559124eea26-66aa-418a-a6ea-efb71c2205bc" x="555" y="125" width="405" height="20" stroke="#29123b" stroke-dasharray="5,3" stroke-width="1px" fill="#F2F2F2" opacity="0.5"/><rect class="participation" id="pe3a3b1a3-222c-454a-b41e-d26fd24705595dc97aca-5fdd-4f1e-8b45-51705304b2ec" x="555" y="185" width="405" height="20" stroke="#29123b" stroke-dasharray="5,3" stroke-width="1px" fill="#F2F2F2" opacity="0.5"/><rect class="participation" id="pe3a3b1a3-222c-454a-b41e-d26fd2470559ae0dda8f-7d23-4a2e-a9b4-607ab8166304" x="555" y="215" width="405" height="20" stroke="#29123b" stroke-dasharray="5,3" stroke-width="1px" fill="#F2F2F2" opacity="0.5"/><rect class="participation" id="pe3a3b1a3-222c-454a-b41e-d26fd2470559ebd620c7-9b64-4023-a960-7b08168e9ea1" x="555" y="245" width="405" height="20" stroke="#29123b" stroke-dasharray="5,3" stroke-width="1px" fill="#F2F2F2" opacity="0.5"/><defs class="axisTriangle"><marker id="triangle" refX="0" refY="10" markerWidth="20" markerHeight="20" markerUnits="userSpaceOnUse" orient="auto" viewbox="0 0 20 20"><path d="M 0 0 L 20 10 L 0 20 z" style="fill: rgb(127, 127, 127);"/></marker></defs><line class="axisLine" x1="20" y1="285" x2="970" y2="285" marker-end="url(#triangle)" stroke="#7F7F7F" stroke-width="15"/><text class="axisLable" x="470" y="290" stroke="white" fill="white" font-size="0.8em" font-weight="200" text-anchor="start" font-family="Roboto, Arial, sans-serif">Time</text><line class="axisLine" x1="20" y1="292.5" x2="20" y2="30" marker-end="url(#triangle)" stroke="#7F7F7F" stroke-width="15"/><text class="axisLable" x="44" y="172.5" stroke="white" fill="white" font-size="0.8em" font-weight="200" text-anchor="middle" font-family="Roboto, Arial, sans-serif" transform="rotate(270 24 172.5)">Space</text></g></svg>