<svg xmlns="http://www.w3.org/2000/svg" viewBox="0 0 1000 300" style="min-width: 100%; max-width: 100%;"><g id="activity-diagram-group" transform="translate(0,0) scale(1)"><defs><mask id="activity-mask" maskUnits="userSpaceOnUse"><rect x="-50000" y="-50000" width="100000" height="100000" fill="white"/><rect x="-50000" y="35" width="100000" height="124" fill="black"/><path d="M 33.333333333333336 35 l 936.6666666666666 0l 6.666666666666667 62 -6.666666666666667 62l -936.6666666666666 0l 6.666666666666667 -62 -6.666666666666667 -62Z" fill="white"/><rect x="-50000" y="57" width="100000" height="20" fill="black"/><path d="M 33.833333333333336 57 l 935.6666666666666 0l 6.666666666666667 10 -6.666666666666667 10l -935.6666666666666 0l 6.666666666666667 -10 -6.666666666666667 -10Z" fill="white"/><rect x="-50000" y="87" width="100000" height="20" fill="black"/><path d="M 33.833333333333336 87 l 935.6666666666666 0l 6.666666666666667 10 -6.666666666666667 10l -935.6666666666666 0l 6.666666666666667 -10 -6.666666666666667 -10Z" fill="white"/><rect x="-50000" y="117" width="100000" height="20" fill="black"/><path d="M 33.833333333333336 117 l 935.6666666666666 0l 6.666666666666667 10 -6.666666666666667 10l -935.6666666666666 0l 6.666666666666667 -10 -6.666666666666667 -10Z" fill="white"/></mask><pattern id="installHatch" width="8" height="8" patternUnits="userSpaceOnUse" patternTransform="rotate(45)"><line x1="0" y1="0" x2="0" y2="8" stroke="#666" stroke-width="1.5"/></pattern><pattern id="installHatchHighlight" width="8" height="8" patternUnits="userSpaceOnUse" patternTransform="rotate(45)"><line x1="0" y1="0" x2="0" y2="8" stroke="#444" stroke-width="2"/></pattern><pattern id="exportInstallHatch" width="4" height="4" patternUnits="userSpaceOnUse" patternTransform="rotate(45)"><line x1="0" y1="0" x2="0" y2="4" stroke="#444" stroke-width="1.5"/></pattern></defs><path class="individual" id="i63933611-7662-416a-b273-9141f3b46ba9" d="M 33.333333333333336 35 l 936.6666666666666 0l 6.666666666666667 62 -6.666666666666667 62l -936.6666666666666 0l 6.666666666666667 -62 -6.666666666666667 -62Z" stroke="#7F7F7F" stroke-width="1px" fill="white" data-row-y="35" style="cursor: ns-resize; fill: white;"/><path class="individual" id="iea7aeaec-ef96-47cc-a985-a3d0d0cf8ce3" d="M 33.833333333333336 57 l 935.6666666666666 0l 6.666666666666667 10 -6.666666666666667 10l -935.6666666666666 0l 6.666666666666667 -10 -6.666666666666667 -10Z" stroke="#7F7F7F" stroke-width="1px" fill="white" data-row-y="57" style="cursor: ns-resize; fill: white;"/><path class="individual" id="iaff3b7c0-ceb5-45d6-823a-55f9f7750020" d="M 33.833333333333336 87 l 935.6666666666666 0l 6.666666666666667 10 -6.666666666666667 10l -935.6666666666666 0l 6.666666666666667 -10 -6.666666666666667 -10Z" stroke="#7F7F7F" stroke-width="1px" fill="white" data-row-y="87" style="cursor: ns-resize; fill: white;"/><path class="individual" id="i377f8850-57b0-4609-aa68-6263447ff52f" d="M 33.833333333333336 117 l 935.6666666666666 0l 6.666666666666667 10 -6.666666666666667 10l -935.6666666666666 0l 6.666666666666667 -10 -6.666666666666667 -10Z" stroke="#7F7F7F" stroke-width="1px" fill="white" data-row-y="117" style="cursor: ns-resize; fill: white;"/><text class="individualLabel" id="il63933611-7662-416a-b273-9141f3b46ba9" x="45" y="50" text-anchor="start" font-family="Roboto, Arial, sans-serif" font-size="0.8em">▣ Packaging Cell A</text><text class="individualLabel" id="ilea7aeaec-ef96-47cc-a985-a3d0d0cf8ce3" x="45" y="72" text-anchor="start" font-family="Roboto, Arial, sans-serif" font-size="0.8em">◇ Main Controller Slot</text><text class="individualLabel" id="ilaff3b7c0-ceb5-45d6-823a-55f9f7750020" x="45" y="102" text-anchor="start" font-family="Roboto, Arial, sans-serif" font-size="0.8em">◇ Vision Camera Mount</text><text class="individualLabel" id="il377f8850-57b0-4609-aa68-6263447ff52f" x="45" y="132" text-anchor="start" font-family="Roboto, Arial, sans-serif" font-size="0.8em">◇ Tool Head Position</text><defs class="axisTriangle"><marker id="triangle" refX="0" refY="10" markerWidth="20" markerHeight="20" markerUnits="userSpaceOnUse" orient="auto" viewbox="0 0 20 20"><path d="M 0 0 L 20 10 L 0 20 z" style="fill: rgb(127, 127, 127);"/></marker></defs><line class="axisLine" x1="20" y1="179" x2="970" y2="179" marker-end="url(#triangle)" stroke="#7F7F7F" stroke-width="15"/><text class="axisLable" x="470" y="184" stroke="white" fill="white" font-size="0.8em" font-weight="200" text-anchor="start" font-family="Roboto, Arial, sans-serif">Time</text><line class="axisLine" x1="20" y1="186.5" x2="20" y2="30" marker-end="url(#triangle)" stroke="#7F7F7F" stroke-width="15"/><text class="axisLable" x="44" y="119.5" stroke="white" fill="white" font-size="0.8em" font-weight="200" text-anchor="middle" font-family="Roboto, Arial, sans-serif" transform="rotate(270 24 119.5)">Space</text></g><g transform="translate(872, 203)"><rect x="0" y="0" width="120" height="91" fill="white" stroke="rgba(0,0,0,0.175)" stroke-width="0.5" rx="3"/><text x="6" y="15" font-family="Roboto, Arial, sans-serif" font-size="9" font-weight="500" fill="#212529">Entity Legend</text><g><text x="11" y="29.65" text-anchor="middle" font-size="9" fill="#333">▣</text><text x="20" y="29.5" font-family="Roboto, Arial, sans-serif" font-size="7.5" fill="#111827">System</text></g><g><text x="11" y="42.65" text-anchor="middle" font-size="9" fill="#333">◇</text><text x="20" y="42.5" font-family="Roboto, Arial, sans-serif" font-size="7.5" fill="#111827">System Component</text></g><g><text x="11" y="55.65" text-anchor="middle" font-size="9" fill="#333">○</text><text x="20" y="55.5" font-family="Roboto, Arial, sans-serif" font-size="7.5" fill="#111827">Individual</text></g><g><rect x="6" y="61.5" width="10" height="7.5" rx="1.5" fill="url(#exportInstallHatch)" stroke="#666" stroke-width="0.8"/><text x="20" y="68.5" font-family="Roboto, Arial, sans-serif" font-size="7.5" fill="#111827">Installation Period</text></g><g><rect x="6" y="74.5" width="10" height="7.5" rx="1.5" fill="none" stroke="#666" stroke-width="1" stroke-dasharray="3,2"/><text x="20" y="81.5" font-family="Roboto, Arial, sans-serif" font-size="7.5" fill="#111827">Currently Installed</text></g></g></svg>