<svg xmlns="http://www.w3.org/2000/svg" viewBox="0 0 1000 390" style="min-width: 100%; max-width: 100%;"><g id="activity-diagram-group" transform="translate(0,0) scale(1)"><defs><mask id="activity-mask" maskUnits="userSpaceOnUse"><rect x="-50000" y="-50000" width="100000" height="100000" fill="white"/><rect x="-50000" y="35" width="100000" height="20" fill="black"/><path d="M 33.333333333333336 35 l 92.66666666666666 0l 0 20l -92.66666666666666 0l 6.666666666666667 -10 -6.666666666666667 -10Z" fill="white"/><rect x="-50000" y="65" width="100000" height="124" fill="black"/><path d="M 33.333333333333336 65 l 936.6666666666666 0l 6.666666666666667 62 -6.666666666666667 62l -936.6666666666666 0l 6.666666666666667 -62 -6.666666666666667 -62Z" fill="white"/><rect x="-50000" y="87" width="100000" height="20" fill="black"/><path d="M 33.833333333333336 87 l 935.6666666666666 0l 6.666666666666667 10 -6.666666666666667 10l -935.6666666666666 0l 6.666666666666667 -10 -6.666666666666667 -10Z" fill="white"/><rect x="-50000" y="117" width="100000" height="20" fill="black"/><path d="M 33.833333333333336 117 l 935.6666666666666 0l 6.666666666666667 10 -6.666666666666667 10l -935.6666666666666 0l 6.666666666666667 -10 -6.666666666666667 -10Z" fill="white"/><rect x="-50000" y="147" width="100000" height="20" fill="black"/><path d="M 33.833333333333336 147 l 935.6666666666666 0l 6.666666666666667 10 -6.666666666666667 10l -935.6666666666666 0l 6.666666666666667 -10 -6.666666666666667 -10Z" fill="white"/><rect x="-50000" y="199" width="100000" height="20" fill="black"/><path d="M 33.333333333333336 199 l 92.66666666666666 0l 0 20l -92.66666666666666 0l 6.666666666666667 -10 -6.666666666666667 -10Z M 542.1818181818182 199 l 427.81818181818176 0l 6.666666666666667 10 -6.666666666666667 10l -427.81818181818176 0Z" fill="white"/><rect x="-50000" y="229" width="100000" height="20" fill="black"/><path d="M 33.333333333333336 229 l 534.4848484848484 0l 0 20l -534.4848484848484 0l 6.666666666666667 -10 -6.666666666666667 -10Z M 910.3636363636364 229 l 59.636363636363626 0l 6.666666666666667 10 -6.666666666666667 10l -59.636363636363626 0Z" fill="white"/></mask><pattern id="installHatch" width="8" height="8" patternUnits="userSpaceOnUse" patternTransform="rotate(45)"><rect width="8" height="8" fill="#d3d3d3"/><line x1="0" y1="0" x2="0" y2="8" stroke="#666" stroke-width="1.5"/></pattern><pattern id="installHatchHighlight" width="8" height="8" patternUnits="userSpaceOnUse" patternTransform="rotate(45)"><rect width="8" height="8" fill="#d3d3d3"/><line x1="0" y1="0" x2="0" y2="8" stroke="#444" stroke-width="2"/></pattern><clipPath id="installClip-ea7aeaec-ef96-47cc-a985-a3d0d0cf8ce3"><path d="M 33.833333333333336 87 l 935.6666666666666 0l 6.666666666666667 10 -6.666666666666667 10l -935.6666666666666 0l 6.666666666666667 -10 -6.666666666666667 -10Z"/></clipPath><clipPath id="installClip-aff3b7c0-ceb5-45d6-823a-55f9f7750020"><path d="M 33.833333333333336 117 l 935.6666666666666 0l 6.666666666666667 10 -6.666666666666667 10l -935.6666666666666 0l 6.666666666666667 -10 -6.666666666666667 -10Z"/></clipPath><pattern id="exportInstallHatch" width="4" height="4" patternUnits="userSpaceOnUse" patternTransform="rotate(45)"><line x1="0" y1="0" x2="0" y2="4" stroke="#444" stroke-width="1.5"/></pattern></defs><path class="individual" id="icd90635f-106f-44a1-87d9-cfae1a464153" d="M 33.333333333333336 35 l 92.66666666666666 0l 0 20l -92.66666666666666 0l 6.666666666666667 -10 -6.666666666666667 -10Z" stroke="#7F7F7F" stroke-width="1px" fill="#B1B1B0" data-row-y="35" style="cursor: default;"/><path class="individual" id="i63933611-7662-416a-b273-9141f3b46ba9" d="M 33.333333333333336 65 l 936.6666666666666 0l 6.666666666666667 62 -6.666666666666667 62l -936.6666666666666 0l 6.666666666666667 -62 -6.666666666666667 -62Z" stroke="#7F7F7F" stroke-width="1px" fill="white" data-row-y="65" style="cursor: default;"/><path class="individual" id="iea7aeaec-ef96-47cc-a985-a3d0d0cf8ce3" d="M 33.833333333333336 87 l 935.6666666666666 0l 6.666666666666667 10 -6.666666666666667 10l -935.6666666666666 0l 6.666666666666667 -10 -6.666666666666667 -10Z" stroke="#7F7F7F" stroke-width="1px" fill="white" data-row-y="87" style="cursor: default;"/><path class="individual" id="iaff3b7c0-ceb5-45d6-823a-55f9f7750020" d="M 33.833333333333336 117 l 935.6666666666666 0l 6.666666666666667 10 -6.666666666666667 10l -935.6666666666666 0l 6.666666666666667 -10 -6.666666666666667 -10Z" stroke="#7F7F7F" stroke-width="1px" fill="white" data-row-y="117" style="cursor: default;"/><path class="individual" id="i377f8850-57b0-4609-aa68-6263447ff52f" d="M 33.833333333333336 147 l 935.6666666666666 0l 6.666666666666667 10 -6.666666666666667 10l -935.6666666666666 0l 6.666666666666667 -10 -6.666666666666667 -10Z" stroke="#7F7F7F" stroke-width="1px" fill="white" data-row-y="147" style="cursor: default;"/><path class="individual" id="id2b7ea0f-598b-4b12-8f29-e44631c17e86" d="M 33.333333333333336 199 l 92.66666666666666 0l 0 20l -92.66666666666666 0l 6.666666666666667 -10 -6.666666666666667 -10Z M 542.1818181818182 199 l 427.81818181818176 0l 6.666666666666667 10 -6.666666666666667 10l -427.81818181818176 0Z" stroke="#7F7F7F" stroke-width="1px" fill="#B1B1B0" data-row-y="199" style="cursor: default;"/><path class="individual" id="i83cdacdc-9fe8-4ba3-97c4-599d8ed221e1" d="M 33.333333333333336 229 l 534.4848484848484 0l 0 20l -534.4848484848484 0l 6.666666666666667 -10 -6.666666666666667 -10Z M 910.3636363636364 229 l 59.636363636363626 0l 6.666666666666667 10 -6.666666666666667 10l -59.636363636363626 0Z" stroke="#7F7F7F" stroke-width="1px" fill="#B1B1B0" data-row-y="229" style="cursor: default;"/><path class="installDash" d="M 126 35 l 844 0l 6.666666666666667 10 -6.666666666666667 10l -844 0Z" fill="none" stroke="#7F7F7F" stroke-width="1px" stroke-dasharray="5,3" data-individual-id="cd90635f-106f-44a1-87d9-cfae1a464153" style="pointer-events: none;"/><path class="installDash" d="M 126 199 l 416.18181818181824 0l 0 20l -416.18181818181824 0Z" fill="none" stroke="#7F7F7F" stroke-width="1px" stroke-dasharray="5,3" data-individual-id="d2b7ea0f-598b-4b12-8f29-e44631c17e86" style="pointer-events: none;"/><path class="installDash" d="M 567.8181818181818 229 l 342.5454545454546 0l 0 20l -342.5454545454546 0Z" fill="none" stroke="#7F7F7F" stroke-width="1px" stroke-dasharray="5,3" data-individual-id="83cdacdc-9fe8-4ba3-97c4-599d8ed221e1" style="pointer-events: none;"/><text class="individualLabel" id="ilcd90635f-106f-44a1-87d9-cfae1a464153" x="45" y="50" text-anchor="start" font-family="Roboto, Arial, sans-serif" font-size="0.8em" style="cursor: default;">○ PLC Unit 01</text><text class="individualLabel" id="il63933611-7662-416a-b273-9141f3b46ba9" x="45" y="80" text-anchor="start" font-family="Roboto, Arial, sans-serif" font-size="0.8em" style="cursor: default;">▣ Packaging Cell A</text><text class="individualLabel" id="ilea7aeaec-ef96-47cc-a985-a3d0d0cf8ce3" x="45" y="102" text-anchor="start" font-family="Roboto, Arial, sans-serif" font-size="0.8em" style="cursor: default;">◇ Main Controller Slot</text><text class="individualLabel" id="ilaff3b7c0-ceb5-45d6-823a-55f9f7750020" x="45" y="132" text-anchor="start" font-family="Roboto, Arial, sans-serif" font-size="0.8em" style="cursor: default;">◇ Vision Camera Mount</text><text class="individualLabel" id="il377f8850-57b0-4609-aa68-6263447ff52f" x="45" y="162" text-anchor="start" font-family="Roboto, Arial, sans-serif" font-size="0.8em" style="cursor: default;">◇ Tool Head Position</text><text class="individualLabel" id="ild2b7ea0f-598b-4b12-8f29-e44631c17e86" x="45" y="214" text-anchor="start" font-family="Roboto, Arial, sans-serif" font-size="0.8em" style="cursor: default;">○ Camera Unit 01</text><text class="individualLabel" id="il83cdacdc-9fe8-4ba3-97c4-599d8ed221e1" x="45" y="244" text-anchor="start" font-family="Roboto, Arial, sans-serif" font-size="0.8em" style="cursor: default;">○ Camera Unit 02</text><path class="installHatch" d="M 150 87 L 958 87 L 964.6666666666666 97 L 958 107 L 150 107 Z" fill="url(#installHatch)" stroke="#7F7F7F" stroke-width="2" opacity="1" clip-path="url(#installClip-ea7aeaec-ef96-47cc-a985-a3d0d0cf8ce3)" data-installed-id="cd90635f-106f-44a1-87d9-cfae1a464153" data-target-id="ea7aeaec-ef96-47cc-a985-a3d0d0cf8ce3"/><path class="installConnectorRibbon" d="M 126 35&#10;L 126 55&#10;L 150 107&#10;L 150 87 Z" fill="#8d8d8b" fill-opacity="1" stroke="#7F7F7F" stroke-width="1.5" data-ribbon-kind="start" data-main-x="150" data-side-x="126" data-lower-top="35" data-lower-bottom="55" data-upper-top="87" data-upper-bottom="107" data-installed-id="cd90635f-106f-44a1-87d9-cfae1a464153" data-target-id="ea7aeaec-ef96-47cc-a985-a3d0d0cf8ce3"/><rect class="installHatch" x="150" y="117" width="368.18181818181824" height="20" fill="url(#installHatch)" stroke="#7F7F7F" stroke-width="2" opacity="1" clip-path="url(#installClip-aff3b7c0-ceb5-45d6-823a-55f9f7750020)" data-installed-id="d2b7ea0f-598b-4b12-8f29-e44631c17e86" data-target-id="aff3b7c0-ceb5-45d6-823a-55f9f7750020"/><path class="installConnectorRibbon" d="M 126 199&#10;L 126 219&#10;L 150 137&#10;L 150 117 Z" fill="#8d8d8b" fill-opacity="1" stroke="#7F7F7F" stroke-width="1.5" data-ribbon-kind="start" data-main-x="150" data-side-x="126" data-lower-top="199" data-lower-bottom="219" data-upper-top="117" data-upper-bottom="137" data-installed-id="d2b7ea0f-598b-4b12-8f29-e44631c17e86" data-target-id="aff3b7c0-ceb5-45d6-823a-55f9f7750020"/><path class="installConnectorRibbon" d="M 518.1818181818182 117&#10;L 518.1818181818182 137&#10;L 542.1818181818182 219&#10;L 542.1818181818182 199 Z" fill="#8d8d8b" fill-opacity="1" stroke="#7F7F7F" stroke-width="1.5" data-ribbon-kind="end" data-main-x="518.1818181818182" data-side-x="542.1818181818182" data-lower-top="199" data-lower-bottom="219" data-upper-top="117" data-upper-bottom="137" data-installed-id="d2b7ea0f-598b-4b12-8f29-e44631c17e86" data-target-id="aff3b7c0-ceb5-45d6-823a-55f9f7750020"/><rect class="installHatch" x="591.8181818181819" y="117" width="294.5454545454545" height="20" fill="url(#installHatch)" stroke="#7F7F7F" stroke-width="2" opacity="1" clip-path="url(#installClip-aff3b7c0-ceb5-45d6-823a-55f9f7750020)" data-installed-id="83cdacdc-9fe8-4ba3-97c4-599d8ed221e1" data-target-id="aff3b7c0-ceb5-45d6-823a-55f9f7750020"/><path class="installConnectorRibbon" d="M 567.8181818181819 229&#10;L 567.8181818181819 249&#10;L 591.8181818181819 137&#10;L 591.8181818181819 117 Z" fill="#8d8d8b" fill-opacity="1" stroke="#7F7F7F" stroke-width="1.5" data-ribbon-kind="start" data-main-x="591.8181818181819" data-side-x="567.8181818181819" data-lower-top="229" data-lower-bottom="249" data-upper-top="117" data-upper-bottom="137" data-installed-id="83cdacdc-9fe8-4ba3-97c4-599d8ed221e1" data-target-id="aff3b7c0-ceb5-45d6-823a-55f9f7750020"/><path class="installConnectorRibbon" d="M 886.3636363636364 117&#10;L 886.3636363636364 137&#10;L 910.3636363636364 249&#10;L 910.3636363636364 229 Z" fill="#8d8d8b" fill-opacity="1" stroke="#7F7F7F" stroke-width="1.5" data-ribbon-kind="end" data-main-x="886.3636363636364" data-side-x="910.3636363636364" data-lower-top="229" data-lower-bottom="249" data-upper-top="117" data-upper-bottom="137" data-installed-id="83cdacdc-9fe8-4ba3-97c4-599d8ed221e1" data-target-id="aff3b7c0-ceb5-45d6-823a-55f9f7750020"/><defs class="axisTriangle"><marker id="triangle" refX="0" refY="10" markerWidth="20" markerHeight="20" markerUnits="userSpaceOnUse" orient="auto" viewbox="0 0 20 20"><path d="M 0 0 L 20 10 L 0 20 z" style="fill: rgb(127, 127, 127);"/></marker></defs><line class="axisLine" x1="20" y1="269" x2="970" y2="269" marker-end="url(#triangle)" stroke="#7F7F7F" stroke-width="15"/><text class="axisLable" x="470" y="274" stroke="white" fill="white" font-size="0.8em" font-weight="200" text-anchor="start" font-family="Roboto, Arial, sans-serif">Time</text><line class="axisLine" x1="20" y1="276.5" x2="20" y2="30" marker-end="url(#triangle)" stroke="#7F7F7F" stroke-width="15"/><text class="axisLable" x="44" y="164.5" stroke="white" fill="white" font-size="0.8em" font-weight="200" text-anchor="middle" font-family="Roboto, Arial, sans-serif" transform="rotate(270 24 164.5)">Space</text></g><g transform="translate(872, 293)"><rect x="0" y="0" width="120" height="91" fill="white" stroke="rgba(0,0,0,0.175)" stroke-width="0.5" rx="3"/><text x="6" y="15" font-family="Roboto, Arial, sans-serif" font-size="9" font-weight="500" fill="#212529">Entity Legend</text><g><text x="11" y="29.65" text-anchor="middle" font-size="9" fill="#333">▣</text><text x="20" y="29.5" font-family="Roboto, Arial, sans-serif" font-size="7.5" fill="#111827">System</text></g><g><text x="11" y="42.65" text-anchor="middle" font-size="9" fill="#333">◇</text><text x="20" y="42.5" font-family="Roboto, Arial, sans-serif" font-size="7.5" fill="#111827">System Component</text></g><g><text x="11" y="55.65" text-anchor="middle" font-size="9" fill="#333">○</text><text x="20" y="55.5" font-family="Roboto, Arial, sans-serif" font-size="7.5" fill="#111827">Individual</text></g><g><rect x="6" y="61.5" width="10" height="7.5" rx="1.5" fill="url(#exportInstallHatch)" stroke="#666" stroke-width="0.8"/><text x="20" y="68.5" font-family="Roboto, Arial, sans-serif" font-size="7.5" fill="#111827">Installation Period</text></g><g><rect x="6" y="74.5" width="10" height="7.5" rx="1.5" fill="none" stroke="#666" stroke-width="1" stroke-dasharray="3,2"/><text x="20" y="81.5" font-family="Roboto, Arial, sans-serif" font-size="7.5" fill="#111827">Currently Installed</text></g></g></svg>