<svg xmlns="http://www.w3.org/2000/svg" viewBox="0 0 1000 270" style="min-width: 100%; max-width: 100%;"><g id="activity-diagram-group" transform="translate(0,0) scale(1)"><defs><mask id="activity-mask" maskUnits="userSpaceOnUse"><rect x="-50000" y="-50000" width="100000" height="100000" fill="white"/><rect x="-50000" y="35" width="100000" height="64" fill="black"/><path d="M 33.333333333333336 35 l 936.6666666666666 0l 6.666666666666667 32 -6.666666666666667 32l -936.6666666666666 0l 6.666666666666667 -32 -6.666666666666667 -32Z" fill="white"/><rect x="-50000" y="57" width="100000" height="20" fill="black"/><path d="M 33.833333333333336 57 l 935.6666666666666 0l 6.666666666666667 10 -6.666666666666667 10l -935.6666666666666 0l 6.666666666666667 -10 -6.666666666666667 -10Z" fill="white"/><rect x="-50000" y="109" width="100000" height="20" fill="black"/><path d="M 33.333333333333336 109 l 92.66666666666666 0l 0 20l -92.66666666666666 0l 6.666666666666667 -10 -6.666666666666667 -10Z M 394.90909090909093 109 l 25.636363636363626 0l 0 20l -25.636363636363626 0Z" fill="white"/></mask><pattern id="installHatch" width="8" height="8" patternUnits="userSpaceOnUse" patternTransform="rotate(45)"><line x1="0" y1="0" x2="0" y2="8" stroke="#666" stroke-width="1.5"/></pattern><pattern id="installHatchHighlight" width="8" height="8" patternUnits="userSpaceOnUse" patternTransform="rotate(45)"><line x1="0" y1="0" x2="0" y2="8" stroke="#444" stroke-width="2"/></pattern><clipPath id="installClip-0f14a5f2-f3cf-4083-9acc-01a04afcb832"><path d="M 33.833333333333336 57 l 935.6666666666666 0l 6.666666666666667 10 -6.666666666666667 10l -935.6666666666666 0l 6.666666666666667 -10 -6.666666666666667 -10Z"/></clipPath><pattern id="exportInstallHatch" width="4" height="4" patternUnits="userSpaceOnUse" patternTransform="rotate(45)"><line x1="0" y1="0" x2="0" y2="4" stroke="#444" stroke-width="1.5"/></pattern></defs><path class="individual" id="i010adaa0-ed9b-4c2d-8817-9b5e133d7173" d="M 33.333333333333336 35 l 936.6666666666666 0l 6.666666666666667 32 -6.666666666666667 32l -936.6666666666666 0l 6.666666666666667 -32 -6.666666666666667 -32Z" stroke="#7F7F7F" stroke-width="1px" fill="white" data-row-y="35" style="cursor: ns-resize;"/><path class="individual" id="i0f14a5f2-f3cf-4083-9acc-01a04afcb832" d="M 33.833333333333336 57 l 935.6666666666666 0l 6.666666666666667 10 -6.666666666666667 10l -935.6666666666666 0l 6.666666666666667 -10 -6.666666666666667 -10Z" stroke="#7F7F7F" stroke-width="1px" fill="white" data-row-y="57" style="cursor: ns-resize;"/><path class="individual" id="i99fd3ebd-5d85-47ec-b772-10526c12f24e" d="M 33.333333333333336 109 l 92.66666666666666 0l 0 20l -92.66666666666666 0l 6.666666666666667 -10 -6.666666666666667 -10Z M 394.90909090909093 109 l 25.636363636363626 0l 0 20l -25.636363636363626 0Z" stroke="#7F7F7F" stroke-width="1px" fill="#B1B1B0" data-row-y="109" style="cursor: ns-resize;"/><path class="installDash" d="M 126 109 l 268.90909090909093 0l 0 20l -268.90909090909093 0Z" fill="none" stroke="#7F7F7F" stroke-width="1px" stroke-dasharray="5,3" data-individual-id="99fd3ebd-5d85-47ec-b772-10526c12f24e" style="pointer-events: none;"/><path class="installDash" d="M 420.54545454545456 109 l 549.4545454545455 0l 6.666666666666667 10 -6.666666666666667 10l -549.4545454545455 0Z" fill="none" stroke="#7F7F7F" stroke-width="1px" stroke-dasharray="5,3" data-individual-id="99fd3ebd-5d85-47ec-b772-10526c12f24e" style="pointer-events: none;"/><text class="individualLabel" id="il010adaa0-ed9b-4c2d-8817-9b5e133d7173" x="45" y="50" text-anchor="start" font-family="Roboto, Arial, sans-serif" font-size="0.8em">▣ System 1</text><text class="individualLabel" id="il0f14a5f2-f3cf-4083-9acc-01a04afcb832" x="45" y="72" text-anchor="start" font-family="Roboto, Arial, sans-serif" font-size="0.8em">◇ System comp 1</text><text class="individualLabel" id="il99fd3ebd-5d85-47ec-b772-10526c12f24e" x="45" y="124" text-anchor="start" font-family="Roboto, Arial, sans-serif" font-size="0.8em">○ Individual 1</text><rect class="installHatch" x="150" y="57" width="220.90909090909093" height="20" fill="url(#installHatchHighlight)" stroke="#7F7F7F" stroke-width="2" opacity="1" clip-path="url(#installClip-0f14a5f2-f3cf-4083-9acc-01a04afcb832)" data-installed-id="99fd3ebd-5d85-47ec-b772-10526c12f24e" data-target-id="0f14a5f2-f3cf-4083-9acc-01a04afcb832"/><path class="installConnectorRibbon" d="M 126 109&#10;L 126 129&#10;L 150 77&#10;L 150 57 Z" fill="#8d8d8b" fill-opacity="1" stroke="#7F7F7F" stroke-width="1.5" data-ribbon-kind="start" data-main-x="150" data-side-x="126" data-lower-top="109" data-lower-bottom="129" data-upper-top="57" data-upper-bottom="77" data-installed-id="99fd3ebd-5d85-47ec-b772-10526c12f24e" data-target-id="0f14a5f2-f3cf-4083-9acc-01a04afcb832"/><path class="installConnectorRibbon" d="M 370.90909090909093 57&#10;L 370.90909090909093 77&#10;L 394.90909090909093 129&#10;L 394.90909090909093 109 Z" fill="#8d8d8b" fill-opacity="1" stroke="#7F7F7F" stroke-width="1.5" data-ribbon-kind="end" data-main-x="370.90909090909093" data-side-x="394.90909090909093" data-lower-top="109" data-lower-bottom="129" data-upper-top="57" data-upper-bottom="77" data-installed-id="99fd3ebd-5d85-47ec-b772-10526c12f24e" data-target-id="0f14a5f2-f3cf-4083-9acc-01a04afcb832"/><path class="installHatch" d="M 444.54545454545456 57 L 958 57 L 964.6666666666666 67 L 958 77 L 444.54545454545456 77 Z" fill="url(#installHatchHighlight)" stroke="#7F7F7F" stroke-width="2" opacity="1" clip-path="url(#installClip-0f14a5f2-f3cf-4083-9acc-01a04afcb832)" data-installed-id="99fd3ebd-5d85-47ec-b772-10526c12f24e" data-target-id="0f14a5f2-f3cf-4083-9acc-01a04afcb832"/><path class="installConnectorRibbon" d="M 420.54545454545456 109&#10;L 420.54545454545456 129&#10;L 444.54545454545456 77&#10;L 444.54545454545456 57 Z" fill="#8d8d8b" fill-opacity="1" stroke="#7F7F7F" stroke-width="1.5" data-ribbon-kind="start" data-main-x="444.54545454545456" data-side-x="420.54545454545456" data-lower-top="109" data-lower-bottom="129" data-upper-top="57" data-upper-bottom="77" data-installed-id="99fd3ebd-5d85-47ec-b772-10526c12f24e" data-target-id="0f14a5f2-f3cf-4083-9acc-01a04afcb832"/><defs class="axisTriangle"><marker id="triangle" refX="0" refY="10" markerWidth="20" markerHeight="20" markerUnits="userSpaceOnUse" orient="auto" viewbox="0 0 20 20"><path d="M 0 0 L 20 10 L 0 20 z" style="fill: rgb(127, 127, 127);"/></marker></defs><line class="axisLine" x1="20" y1="149" x2="970" y2="149" marker-end="url(#triangle)" stroke="#7F7F7F" stroke-width="15"/><text class="axisLable" x="470" y="154" stroke="white" fill="white" font-size="0.8em" font-weight="200" text-anchor="start" font-family="Roboto, Arial, sans-serif">Time</text><line class="axisLine" x1="20" y1="156.5" x2="20" y2="30" marker-end="url(#triangle)" stroke="#7F7F7F" stroke-width="15"/><text class="axisLable" x="44" y="104.5" stroke="white" fill="white" font-size="0.8em" font-weight="200" text-anchor="middle" font-family="Roboto, Arial, sans-serif" transform="rotate(270 24 104.5)">Space</text></g><g transform="translate(872, 173)"><rect x="0" y="0" width="120" height="91" fill="white" stroke="rgba(0,0,0,0.175)" stroke-width="0.5" rx="3"/><text x="6" y="15" font-family="Roboto, Arial, sans-serif" font-size="9" font-weight="500" fill="#212529">Entity Legend</text><g><text x="11" y="29.65" text-anchor="middle" font-size="9" fill="#333">▣</text><text x="20" y="29.5" font-family="Roboto, Arial, sans-serif" font-size="7.5" fill="#111827">System</text></g><g><text x="11" y="42.65" text-anchor="middle" font-size="9" fill="#333">◇</text><text x="20" y="42.5" font-family="Roboto, Arial, sans-serif" font-size="7.5" fill="#111827">System Component</text></g><g><text x="11" y="55.65" text-anchor="middle" font-size="9" fill="#333">○</text><text x="20" y="55.5" font-family="Roboto, Arial, sans-serif" font-size="7.5" fill="#111827">Individual</text></g><g><rect x="6" y="61.5" width="10" height="7.5" rx="1.5" fill="url(#exportInstallHatch)" stroke="#666" stroke-width="0.8"/><text x="20" y="68.5" font-family="Roboto, Arial, sans-serif" font-size="7.5" fill="#111827">Installation Period</text></g><g><rect x="6" y="74.5" width="10" height="7.5" rx="1.5" fill="none" stroke="#666" stroke-width="1" stroke-dasharray="3,2"/><text x="20" y="81.5" font-family="Roboto, Arial, sans-serif" font-size="7.5" fill="#111827">Currently Installed</text></g></g></svg>