<svg xmlns="http://www.w3.org/2000/svg" viewBox="0 0 1000 256" style="min-width: 100%; max-width: 100%;"><g id="activity-diagram-group" transform="translate(0,0) scale(1)"><defs><mask id="activity-mask" maskUnits="userSpaceOnUse"><rect x="-50000" y="-50000" width="100000" height="100000" fill="white"/><rect x="-50000" y="35" width="100000" height="20" fill="black"/><path d="M 33.333333333333336 35 l 936.6666666666666 0l 6.666666666666667 10 -6.666666666666667 10l -936.6666666666666 0l 6.666666666666667 -10 -6.666666666666667 -10Z" fill="white"/><rect x="-50000" y="65" width="100000" height="20" fill="black"/><path d="M 33.333333333333336 65 l 936.6666666666666 0l 6.666666666666667 10 -6.666666666666667 10l -936.6666666666666 0l 6.666666666666667 -10 -6.666666666666667 -10Z" fill="white"/><rect x="-50000" y="95" width="100000" height="20" fill="black"/><path d="M 33.333333333333336 95 l 936.6666666666666 0l 6.666666666666667 10 -6.666666666666667 10l -936.6666666666666 0l 6.666666666666667 -10 -6.666666666666667 -10Z" fill="white"/></mask><pattern id="installHatch" width="8" height="8" patternUnits="userSpaceOnUse" patternTransform="rotate(45)"><line x1="0" y1="0" x2="0" y2="8" stroke="#666" stroke-width="1.5"/></pattern><pattern id="installHatchHighlight" width="8" height="8" patternUnits="userSpaceOnUse" patternTransform="rotate(45)"><line x1="0" y1="0" x2="0" y2="8" stroke="#444" stroke-width="2"/></pattern><pattern id="exportInstallHatch" width="4" height="4" patternUnits="userSpaceOnUse" patternTransform="rotate(45)"><line x1="0" y1="0" x2="0" y2="4" stroke="#444" stroke-width="1.5"/></pattern></defs><path class="individual" id="i936043ce-ab5f-4fb4-9750-70f4fa9ab49d" d="M 33.333333333333336 35 l 936.6666666666666 0l 6.666666666666667 10 -6.666666666666667 10l -936.6666666666666 0l 6.666666666666667 -10 -6.666666666666667 -10Z" stroke="#7F7F7F" stroke-width="1px" fill="#B1B1B0" data-row-y="35" style="cursor: ns-resize; fill: rgb(177, 177, 176);"/><path class="individual" id="ibdce958b-7310-4ecb-bcbb-0ab6f30966cf" d="M 33.333333333333336 65 l 936.6666666666666 0l 6.666666666666667 10 -6.666666666666667 10l -936.6666666666666 0l 6.666666666666667 -10 -6.666666666666667 -10Z" stroke="#7F7F7F" stroke-width="1px" fill="#B1B1B0" data-row-y="65" style="cursor: ns-resize; fill: rgb(177, 177, 176);"/><path class="individual" id="if659e636-04fe-4a54-b695-7c0bf5ac948e" d="M 33.333333333333336 95 l 936.6666666666666 0l 6.666666666666667 10 -6.666666666666667 10l -936.6666666666666 0l 6.666666666666667 -10 -6.666666666666667 -10Z" stroke="#7F7F7F" stroke-width="1px" fill="#B1B1B0" data-row-y="95" style="cursor: ns-resize; fill: rgb(177, 177, 176);"/><text class="individualLabel" id="il936043ce-ab5f-4fb4-9750-70f4fa9ab49d" x="45" y="50" text-anchor="start" font-family="Roboto, Arial, sans-serif" font-size="0.8em">○ Individual 1</text><text class="individualLabel" id="ilbdce958b-7310-4ecb-bcbb-0ab6f30966cf" x="45" y="80" text-anchor="start" font-family="Roboto, Arial, sans-serif" font-size="0.8em">○ Individual 2</text><text class="individualLabel" id="ilf659e636-04fe-4a54-b695-7c0bf5ac948e" x="45" y="110" text-anchor="start" font-family="Roboto, Arial, sans-serif" font-size="0.8em">○ Individual 3</text><rect class="activity" id="af6797c82-8a1c-4f16-8c7f-679155497b1c" x="150" y="32" width="73.63636363636364" height="86" stroke="#29123b" stroke-dasharray="5,3" stroke-width="1px" fill="#440099" opacity="0.5"/><rect class="participation" id="pf6797c82-8a1c-4f16-8c7f-679155497b1c936043ce-ab5f-4fb4-9750-70f4fa9ab49d" data-individual-id="936043ce-ab5f-4fb4-9750-70f4fa9ab49d" data-row-id="936043ce-ab5f-4fb4-9750-70f4fa9ab49d" data-activity-id="f6797c82-8a1c-4f16-8c7f-679155497b1c" x="150" y="35" width="73.63636016845703" height="20" stroke="#29123b" stroke-dasharray="5,3" stroke-width="1px" fill="#F2F2F2" opacity="0.5"/><rect class="participation" id="pf6797c82-8a1c-4f16-8c7f-679155497b1cf659e636-04fe-4a54-b695-7c0bf5ac948e" data-individual-id="f659e636-04fe-4a54-b695-7c0bf5ac948e" data-row-id="f659e636-04fe-4a54-b695-7c0bf5ac948e" data-activity-id="f6797c82-8a1c-4f16-8c7f-679155497b1c" x="150" y="95" width="73.63636016845703" height="20" stroke="#29123b" stroke-dasharray="5,3" stroke-width="1px" fill="#F2F2F2" opacity="0.5"/><defs class="axisTriangle"><marker id="triangle" refX="0" refY="10" markerWidth="20" markerHeight="20" markerUnits="userSpaceOnUse" orient="auto" viewbox="0 0 20 20"><path d="M 0 0 L 20 10 L 0 20 z" style="fill: rgb(127, 127, 127);"/></marker></defs><line class="axisLine" x1="20" y1="135" x2="970" y2="135" marker-end="url(#triangle)" stroke="#7F7F7F" stroke-width="15"/><text class="axisLable" x="470" y="140" stroke="white" fill="white" font-size="0.8em" font-weight="200" text-anchor="start" font-family="Roboto, Arial, sans-serif">Time</text><line class="axisLine" x1="20" y1="142.5" x2="20" y2="30" marker-end="url(#triangle)" stroke="#7F7F7F" stroke-width="15"/><text class="axisLable" x="44" y="97.5" stroke="white" fill="white" font-size="0.8em" font-weight="200" text-anchor="middle" font-family="Roboto, Arial, sans-serif" transform="rotate(270 24 97.5)">Space</text><text class="activityLabel" id="alf6797c82-8a1c-4f16-8c7f-679155497b1c" x="186.8181818181818" y="79" text-anchor="middle" font-family="Roboto, Arial, sans-serif" font-size="0.7em" fill="#441d62">Activity 1</text></g><g transform="translate(872, 159)"><rect x="0" y="0" width="120" height="91" fill="white" stroke="rgba(0,0,0,0.175)" stroke-width="0.5" rx="3"/><text x="6" y="15" font-family="Roboto, Arial, sans-serif" font-size="9" font-weight="500" fill="#212529">Entity Legend</text><g><text x="11" y="29.65" text-anchor="middle" font-size="9" fill="#333">▣</text><text x="20" y="29.5" font-family="Roboto, Arial, sans-serif" font-size="7.5" fill="#111827">System</text></g><g><text x="11" y="42.65" text-anchor="middle" font-size="9" fill="#333">◇</text><text x="20" y="42.5" font-family="Roboto, Arial, sans-serif" font-size="7.5" fill="#111827">System Component</text></g><g><text x="11" y="55.65" text-anchor="middle" font-size="9" fill="#333">○</text><text x="20" y="55.5" font-family="Roboto, Arial, sans-serif" font-size="7.5" fill="#111827">Individual</text></g><g><rect x="6" y="61.5" width="10" height="7.5" rx="1.5" fill="url(#exportInstallHatch)" stroke="#666" stroke-width="0.8"/><text x="20" y="68.5" font-family="Roboto, Arial, sans-serif" font-size="7.5" fill="#111827">Installation Period</text></g><g><rect x="6" y="74.5" width="10" height="7.5" rx="1.5" fill="none" stroke="#666" stroke-width="1" stroke-dasharray="3,2"/><text x="20" y="81.5" font-family="Roboto, Arial, sans-serif" font-size="7.5" fill="#111827">Currently Installed</text></g></g></svg>