<svg xmlns="http://www.w3.org/2000/svg" viewBox="0 0 1000 524" style="min-width: 100%; max-width: 100%;"><g id="activity-diagram-group" transform="translate(0,0) scale(1)"><defs><mask id="activity-mask" maskUnits="userSpaceOnUse"><rect x="-50000" y="-50000" width="100000" height="100000" fill="white"/><rect x="-50000" y="35" width="100000" height="20" fill="black"/><path d="M 33.333333333333336 35 l 92.66666666666666 0l 0 20l -92.66666666666666 0l 6.666666666666667 -10 -6.666666666666667 -10Z" fill="white"/><rect x="-50000" y="65" width="100000" height="124" fill="black"/><path d="M 33.333333333333336 65 l 936.6666666666666 0l 6.666666666666667 62 -6.666666666666667 62l -936.6666666666666 0l 6.666666666666667 -62 -6.666666666666667 -62Z" fill="white"/><rect x="-50000" y="87" width="100000" height="20" fill="black"/><path d="M 33.833333333333336 87 l 935.6666666666666 0l 6.666666666666667 10 -6.666666666666667 10l -935.6666666666666 0l 6.666666666666667 -10 -6.666666666666667 -10Z" fill="white"/><rect x="-50000" y="117" width="100000" height="20" fill="black"/><path d="M 33.833333333333336 117 l 935.6666666666666 0l 6.666666666666667 10 -6.666666666666667 10l -935.6666666666666 0l 6.666666666666667 -10 -6.666666666666667 -10Z" fill="white"/><rect x="-50000" y="147" width="100000" height="20" fill="black"/><path d="M 33.833333333333336 147 l 935.6666666666666 0l 6.666666666666667 10 -6.666666666666667 10l -935.6666666666666 0l 6.666666666666667 -10 -6.666666666666667 -10Z" fill="white"/><rect x="-50000" y="199" width="100000" height="20" fill="black"/><path d="M 33.333333333333336 199 l 92.66666666666666 0l 0 20l -92.66666666666666 0l 6.666666666666667 -10 -6.666666666666667 -10Z M 479.4298642533937 199 l 490.5701357466063 0l 6.666666666666667 10 -6.666666666666667 10l -490.5701357466063 0Z" fill="white"/><rect x="-50000" y="229" width="100000" height="20" fill="black"/><path d="M 33.333333333333336 229 l 459.1825037707391 0l 0 20l -459.1825037707391 0l 6.666666666666667 -10 -6.666666666666667 -10Z M 784.8597285067874 229 l 185.1402714932126 0l 6.666666666666667 10 -6.666666666666667 10l -185.1402714932126 0Z" fill="white"/><rect x="-50000" y="259" width="100000" height="64" fill="black"/><path d="M 33.333333333333336 259 l 936.6666666666666 0l 6.666666666666667 32 -6.666666666666667 32l -936.6666666666666 0l 6.666666666666667 -32 -6.666666666666667 -32Z" fill="white"/><rect x="-50000" y="281" width="100000" height="20" fill="black"/><path d="M 33.833333333333336 281 l 935.6666666666666 0l 6.666666666666667 10 -6.666666666666667 10l -935.6666666666666 0l 6.666666666666667 -10 -6.666666666666667 -10Z" fill="white"/><rect x="-50000" y="333" width="100000" height="20" fill="black"/><path d="M 33.333333333333336 333 l 92.66666666666666 0l 0 20l -92.66666666666666 0l 6.666666666666667 -10 -6.666666666666667 -10Z M 418.3438914027149 333 l 551.6561085972851 0l 6.666666666666667 10 -6.666666666666667 10l -551.6561085972851 0Z" fill="white"/><rect x="-50000" y="363" width="100000" height="20" fill="black"/><path d="M 33.333333333333336 363 l 459.1825037707391 0l 0 20l -459.1825037707391 0l 6.666666666666667 -10 -6.666666666666667 -10Z M 784.8597285067874 363 l 185.1402714932126 0l 6.666666666666667 10 -6.666666666666667 10l -185.1402714932126 0Z" fill="white"/></mask><pattern id="installHatch" width="8" height="8" patternUnits="userSpaceOnUse" patternTransform="rotate(45)"><rect width="8" height="8" fill="#d3d3d3"/><line x1="0" y1="0" x2="0" y2="8" stroke="#666" stroke-width="1.5"/></pattern><pattern id="installHatchHighlight" width="8" height="8" patternUnits="userSpaceOnUse" patternTransform="rotate(45)"><rect width="8" height="8" fill="#d3d3d3"/><line x1="0" y1="0" x2="0" y2="8" stroke="#444" stroke-width="2"/></pattern><clipPath id="installClip-ea7aeaec-ef96-47cc-a985-a3d0d0cf8ce3"><path d="M 33.833333333333336 87 l 935.6666666666666 0l 6.666666666666667 10 -6.666666666666667 10l -935.6666666666666 0l 6.666666666666667 -10 -6.666666666666667 -10Z"/></clipPath><clipPath id="installClip-aff3b7c0-ceb5-45d6-823a-55f9f7750020"><path d="M 33.833333333333336 117 l 935.6666666666666 0l 6.666666666666667 10 -6.666666666666667 10l -935.6666666666666 0l 6.666666666666667 -10 -6.666666666666667 -10Z"/></clipPath><clipPath id="installClip-23542729-a3dc-4679-adf2-e40f32f99a8c"><path d="M 33.833333333333336 281 l 935.6666666666666 0l 6.666666666666667 10 -6.666666666666667 10l -935.6666666666666 0l 6.666666666666667 -10 -6.666666666666667 -10Z"/></clipPath><pattern id="exportInstallHatch" width="4" height="4" patternUnits="userSpaceOnUse" patternTransform="rotate(45)"><line x1="0" y1="0" x2="0" y2="4" stroke="#444" stroke-width="1.5"/></pattern></defs><path class="individual" id="icd90635f-106f-44a1-87d9-cfae1a464153" d="M 33.333333333333336 35 l 92.66666666666666 0l 0 20l -92.66666666666666 0l 6.666666666666667 -10 -6.666666666666667 -10Z" stroke="#7F7F7F" stroke-width="1px" fill="#B1B1B0" data-row-y="35" style="cursor: default;"/><path class="individual" id="i63933611-7662-416a-b273-9141f3b46ba9" d="M 33.333333333333336 65 l 936.6666666666666 0l 6.666666666666667 62 -6.666666666666667 62l -936.6666666666666 0l 6.666666666666667 -62 -6.666666666666667 -62Z" stroke="#7F7F7F" stroke-width="1px" fill="white" data-row-y="65" style="cursor: default; fill: white;"/><path class="individual" id="iea7aeaec-ef96-47cc-a985-a3d0d0cf8ce3" d="M 33.833333333333336 87 l 935.6666666666666 0l 6.666666666666667 10 -6.666666666666667 10l -935.6666666666666 0l 6.666666666666667 -10 -6.666666666666667 -10Z" stroke="#7F7F7F" stroke-width="1px" fill="white" data-row-y="87" style="cursor: default;"/><path class="individual" id="iaff3b7c0-ceb5-45d6-823a-55f9f7750020" d="M 33.833333333333336 117 l 935.6666666666666 0l 6.666666666666667 10 -6.666666666666667 10l -935.6666666666666 0l 6.666666666666667 -10 -6.666666666666667 -10Z" stroke="#7F7F7F" stroke-width="1px" fill="white" data-row-y="117" style="cursor: default; fill: white;"/><path class="individual" id="i377f8850-57b0-4609-aa68-6263447ff52f" d="M 33.833333333333336 147 l 935.6666666666666 0l 6.666666666666667 10 -6.666666666666667 10l -935.6666666666666 0l 6.666666666666667 -10 -6.666666666666667 -10Z" stroke="#7F7F7F" stroke-width="1px" fill="white" data-row-y="147" style="cursor: default; fill: white;"/><path class="individual" id="id2b7ea0f-598b-4b12-8f29-e44631c17e86" d="M 33.333333333333336 199 l 92.66666666666666 0l 0 20l -92.66666666666666 0l 6.666666666666667 -10 -6.666666666666667 -10Z M 479.4298642533937 199 l 490.5701357466063 0l 6.666666666666667 10 -6.666666666666667 10l -490.5701357466063 0Z" stroke="#7F7F7F" stroke-width="1px" fill="#B1B1B0" data-row-y="199" style="cursor: default; fill: rgb(177, 177, 176);"/><path class="individual" id="i83cdacdc-9fe8-4ba3-97c4-599d8ed221e1" d="M 33.333333333333336 229 l 459.1825037707391 0l 0 20l -459.1825037707391 0l 6.666666666666667 -10 -6.666666666666667 -10Z M 784.8597285067874 229 l 185.1402714932126 0l 6.666666666666667 10 -6.666666666666667 10l -185.1402714932126 0Z" stroke="#7F7F7F" stroke-width="1px" fill="#B1B1B0" data-row-y="229" style="cursor: default; fill: rgb(177, 177, 176);"/><path class="individual" id="i306af442-18cf-4d5c-aa7e-d4e9b1851aeb" d="M 33.333333333333336 259 l 936.6666666666666 0l 6.666666666666667 32 -6.666666666666667 32l -936.6666666666666 0l 6.666666666666667 -32 -6.666666666666667 -32Z" stroke="#7F7F7F" stroke-width="1px" fill="white" data-row-y="259" style="cursor: default; fill: white;"/><path class="individual" id="i23542729-a3dc-4679-adf2-e40f32f99a8c" d="M 33.833333333333336 281 l 935.6666666666666 0l 6.666666666666667 10 -6.666666666666667 10l -935.6666666666666 0l 6.666666666666667 -10 -6.666666666666667 -10Z" stroke="#7F7F7F" stroke-width="1px" fill="white" data-row-y="281" style="cursor: default;"/><path class="individual" id="i48e082bf-a134-4437-b2e5-1e7b77083642" d="M 33.333333333333336 333 l 92.66666666666666 0l 0 20l -92.66666666666666 0l 6.666666666666667 -10 -6.666666666666667 -10Z M 418.3438914027149 333 l 551.6561085972851 0l 6.666666666666667 10 -6.666666666666667 10l -551.6561085972851 0Z" stroke="#7F7F7F" stroke-width="1px" fill="#B1B1B0" data-row-y="333" style="cursor: default; fill: rgb(177, 177, 176);"/><path class="individual" id="ia3e2254b-3b66-441b-b7ff-6aea3c716859" d="M 33.333333333333336 363 l 459.1825037707391 0l 0 20l -459.1825037707391 0l 6.666666666666667 -10 -6.666666666666667 -10Z M 784.8597285067874 363 l 185.1402714932126 0l 6.666666666666667 10 -6.666666666666667 10l -185.1402714932126 0Z" stroke="#7F7F7F" stroke-width="1px" fill="#B1B1B0" data-row-y="363" style="cursor: default; fill: rgb(177, 177, 176);"/><path class="installDash" d="M 126 35 l 844 0l 6.666666666666667 10 -6.666666666666667 10l -844 0Z" fill="none" stroke="#7F7F7F" stroke-width="1px" stroke-dasharray="5,3" data-individual-id="cd90635f-106f-44a1-87d9-cfae1a464153" style="pointer-events: none;"/><path class="installDash" d="M 126 199 l 353.4298642533937 0l 0 20l -353.4298642533937 0Z" fill="none" stroke="#7F7F7F" stroke-width="1px" stroke-dasharray="5,3" data-individual-id="d2b7ea0f-598b-4b12-8f29-e44631c17e86" style="pointer-events: none;"/><path class="installDash" d="M 492.51583710407243 229 l 292.343891402715 0l 0 20l -292.343891402715 0Z" fill="none" stroke="#7F7F7F" stroke-width="1px" stroke-dasharray="5,3" data-individual-id="83cdacdc-9fe8-4ba3-97c4-599d8ed221e1" style="pointer-events: none;"/><path class="installDash" d="M 126 333 l 292.3438914027149 0l 0 20l -292.3438914027149 0Z" fill="none" stroke="#7F7F7F" stroke-width="1px" stroke-dasharray="5,3" data-individual-id="48e082bf-a134-4437-b2e5-1e7b77083642" style="pointer-events: none;"/><path class="installDash" d="M 492.51583710407243 363 l 292.343891402715 0l 0 20l -292.343891402715 0Z" fill="none" stroke="#7F7F7F" stroke-width="1px" stroke-dasharray="5,3" data-individual-id="a3e2254b-3b66-441b-b7ff-6aea3c716859" style="pointer-events: none;"/><text class="individualLabel" id="ilcd90635f-106f-44a1-87d9-cfae1a464153" x="45" y="50" text-anchor="start" font-family="Roboto, Arial, sans-serif" font-size="0.8em" style="cursor: default;">○ PLC Unit 01</text><text class="individualLabel" id="il63933611-7662-416a-b273-9141f3b46ba9" x="45" y="80" text-anchor="start" font-family="Roboto, Arial, sans-serif" font-size="0.8em" style="cursor: default;">▣ Packaging Cell A</text><text class="individualLabel" id="ilea7aeaec-ef96-47cc-a985-a3d0d0cf8ce3" x="45" y="102" text-anchor="start" font-family="Roboto, Arial, sans-serif" font-size="0.8em" style="cursor: default;">◇ Main Controller Slot</text><text class="individualLabel" id="ilaff3b7c0-ceb5-45d6-823a-55f9f7750020" x="45" y="132" text-anchor="start" font-family="Roboto, Arial, sans-serif" font-size="0.8em" style="cursor: default;">◇ Vision Camera Mount</text><text class="individualLabel" id="il377f8850-57b0-4609-aa68-6263447ff52f" x="45" y="162" text-anchor="start" font-family="Roboto, Arial, sans-serif" font-size="0.8em" style="cursor: default;">◇ Tool Head Position</text><text class="individualLabel" id="ild2b7ea0f-598b-4b12-8f29-e44631c17e86" x="45" y="214" text-anchor="start" font-family="Roboto, Arial, sans-serif" font-size="0.8em" style="cursor: default;">○ Camera Unit 01</text><text class="individualLabel" id="il83cdacdc-9fe8-4ba3-97c4-599d8ed221e1" x="45" y="244" text-anchor="start" font-family="Roboto, Arial, sans-serif" font-size="0.8em" style="cursor: default;">○ Camera Unit 02</text><text class="individualLabel" id="il306af442-18cf-4d5c-aa7e-d4e9b1851aeb" x="45" y="274" text-anchor="start" font-family="Roboto, Arial, sans-serif" font-size="0.8em" style="cursor: default;">▣ Crude Distillation Uni...</text><text class="individualLabel" id="il23542729-a3dc-4679-adf2-e40f32f99a8c" x="45" y="296" text-anchor="start" font-family="Roboto, Arial, sans-serif" font-size="0.8em" style="cursor: default;">◇ P101</text><text class="individualLabel" id="il48e082bf-a134-4437-b2e5-1e7b77083642" x="45" y="348" text-anchor="start" font-family="Roboto, Arial, sans-serif" font-size="0.8em" style="cursor: default;">○ Pump 1</text><text class="individualLabel" id="ila3e2254b-3b66-441b-b7ff-6aea3c716859" x="45" y="378" text-anchor="start" font-family="Roboto, Arial, sans-serif" font-size="0.8em" style="cursor: default;">○ Pump 2</text><path class="installHatch" d="M 150 87 L 958 87 L 964.6666666666666 97 L 958 107 L 150 107 Z" fill="url(#installHatch)" stroke="#7F7F7F" stroke-width="2" opacity="1" clip-path="url(#installClip-ea7aeaec-ef96-47cc-a985-a3d0d0cf8ce3)" data-installed-id="cd90635f-106f-44a1-87d9-cfae1a464153" data-target-id="ea7aeaec-ef96-47cc-a985-a3d0d0cf8ce3"/><path class="installConnectorRibbon" d="M 126 35&#10;L 126 55&#10;L 150 107&#10;L 150 87 Z" fill="#8d8d8b" fill-opacity="1" stroke="#7F7F7F" stroke-width="1.5" data-ribbon-kind="start" data-main-x="150" data-side-x="126" data-lower-top="35" data-lower-bottom="55" data-upper-top="87" data-upper-bottom="107" data-installed-id="cd90635f-106f-44a1-87d9-cfae1a464153" data-target-id="ea7aeaec-ef96-47cc-a985-a3d0d0cf8ce3"/><rect class="installHatch" x="150" y="117" width="305.4298642533937" height="20" fill="url(#installHatch)" stroke="#7F7F7F" stroke-width="2" opacity="1" clip-path="url(#installClip-aff3b7c0-ceb5-45d6-823a-55f9f7750020)" data-installed-id="d2b7ea0f-598b-4b12-8f29-e44631c17e86" data-target-id="aff3b7c0-ceb5-45d6-823a-55f9f7750020"/><path class="installConnectorRibbon" d="M 126 199&#10;L 126 219&#10;L 150 137&#10;L 150 117 Z" fill="#8d8d8b" fill-opacity="1" stroke="#7F7F7F" stroke-width="1.5" data-ribbon-kind="start" data-main-x="150" data-side-x="126" data-lower-top="199" data-lower-bottom="219" data-upper-top="117" data-upper-bottom="137" data-installed-id="d2b7ea0f-598b-4b12-8f29-e44631c17e86" data-target-id="aff3b7c0-ceb5-45d6-823a-55f9f7750020"/><path class="installConnectorRibbon" d="M 455.4298642533937 117&#10;L 455.4298642533937 137&#10;L 479.4298642533937 219&#10;L 479.4298642533937 199 Z" fill="#8d8d8b" fill-opacity="1" stroke="#7F7F7F" stroke-width="1.5" data-ribbon-kind="end" data-main-x="455.4298642533937" data-side-x="479.4298642533937" data-lower-top="199" data-lower-bottom="219" data-upper-top="117" data-upper-bottom="137" data-installed-id="d2b7ea0f-598b-4b12-8f29-e44631c17e86" data-target-id="aff3b7c0-ceb5-45d6-823a-55f9f7750020"/><rect class="installHatch" x="516.5158371040725" y="117" width="244.34389140271492" height="20" fill="url(#installHatch)" stroke="#7F7F7F" stroke-width="2" opacity="1" clip-path="url(#installClip-aff3b7c0-ceb5-45d6-823a-55f9f7750020)" data-installed-id="83cdacdc-9fe8-4ba3-97c4-599d8ed221e1" data-target-id="aff3b7c0-ceb5-45d6-823a-55f9f7750020"/><path class="installConnectorRibbon" d="M 492.5158371040725 229&#10;L 492.5158371040725 249&#10;L 516.5158371040725 137&#10;L 516.5158371040725 117 Z" fill="#8d8d8b" fill-opacity="1" stroke="#7F7F7F" stroke-width="1.5" data-ribbon-kind="start" data-main-x="516.5158371040725" data-side-x="492.5158371040725" data-lower-top="229" data-lower-bottom="249" data-upper-top="117" data-upper-bottom="137" data-installed-id="83cdacdc-9fe8-4ba3-97c4-599d8ed221e1" data-target-id="aff3b7c0-ceb5-45d6-823a-55f9f7750020"/><path class="installConnectorRibbon" d="M 760.8597285067874 117&#10;L 760.8597285067874 137&#10;L 784.8597285067874 249&#10;L 784.8597285067874 229 Z" fill="#8d8d8b" fill-opacity="1" stroke="#7F7F7F" stroke-width="1.5" data-ribbon-kind="end" data-main-x="760.8597285067874" data-side-x="784.8597285067874" data-lower-top="229" data-lower-bottom="249" data-upper-top="117" data-upper-bottom="137" data-installed-id="83cdacdc-9fe8-4ba3-97c4-599d8ed221e1" data-target-id="aff3b7c0-ceb5-45d6-823a-55f9f7750020"/><rect class="installHatch" x="150" y="281" width="244.34389140271492" height="20" fill="url(#installHatch)" stroke="#7F7F7F" stroke-width="2" opacity="1" clip-path="url(#installClip-23542729-a3dc-4679-adf2-e40f32f99a8c)" data-installed-id="48e082bf-a134-4437-b2e5-1e7b77083642" data-target-id="23542729-a3dc-4679-adf2-e40f32f99a8c"/><path class="installConnectorRibbon" d="M 126 333&#10;L 126 353&#10;L 150 301&#10;L 150 281 Z" fill="#8d8d8b" fill-opacity="1" stroke="#7F7F7F" stroke-width="1.5" data-ribbon-kind="start" data-main-x="150" data-side-x="126" data-lower-top="333" data-lower-bottom="353" data-upper-top="281" data-upper-bottom="301" data-installed-id="48e082bf-a134-4437-b2e5-1e7b77083642" data-target-id="23542729-a3dc-4679-adf2-e40f32f99a8c"/><path class="installConnectorRibbon" d="M 394.3438914027149 281&#10;L 394.3438914027149 301&#10;L 418.3438914027149 353&#10;L 418.3438914027149 333 Z" fill="#8d8d8b" fill-opacity="1" stroke="#7F7F7F" stroke-width="1.5" data-ribbon-kind="end" data-main-x="394.3438914027149" data-side-x="418.3438914027149" data-lower-top="333" data-lower-bottom="353" data-upper-top="281" data-upper-bottom="301" data-installed-id="48e082bf-a134-4437-b2e5-1e7b77083642" data-target-id="23542729-a3dc-4679-adf2-e40f32f99a8c"/><rect class="installHatch" x="516.5158371040725" y="281" width="244.34389140271492" height="20" fill="url(#installHatch)" stroke="#7F7F7F" stroke-width="2" opacity="1" clip-path="url(#installClip-23542729-a3dc-4679-adf2-e40f32f99a8c)" data-installed-id="a3e2254b-3b66-441b-b7ff-6aea3c716859" data-target-id="23542729-a3dc-4679-adf2-e40f32f99a8c"/><path class="installConnectorRibbon" d="M 492.5158371040725 363&#10;L 492.5158371040725 383&#10;L 516.5158371040725 301&#10;L 516.5158371040725 281 Z" fill="#8d8d8b" fill-opacity="1" stroke="#7F7F7F" stroke-width="1.5" data-ribbon-kind="start" data-main-x="516.5158371040725" data-side-x="492.5158371040725" data-lower-top="363" data-lower-bottom="383" data-upper-top="281" data-upper-bottom="301" data-installed-id="a3e2254b-3b66-441b-b7ff-6aea3c716859" data-target-id="23542729-a3dc-4679-adf2-e40f32f99a8c"/><path class="installConnectorRibbon" d="M 760.8597285067874 281&#10;L 760.8597285067874 301&#10;L 784.8597285067874 383&#10;L 784.8597285067874 363 Z" fill="#8d8d8b" fill-opacity="1" stroke="#7F7F7F" stroke-width="1.5" data-ribbon-kind="end" data-main-x="760.8597285067874" data-side-x="784.8597285067874" data-lower-top="363" data-lower-bottom="383" data-upper-top="281" data-upper-bottom="301" data-installed-id="a3e2254b-3b66-441b-b7ff-6aea3c716859" data-target-id="23542729-a3dc-4679-adf2-e40f32f99a8c"/><rect class="activity" id="afd9ca9e6-bdc6-4375-b3f7-22ffa40106a2" x="150" y="62" width="244.34389140271495" height="130" stroke="#29123b" stroke-dasharray="5,3" stroke-width="1px" fill="#440099" opacity="0.5"/><rect class="activity" id="af9342ca8-6493-4851-9c77-f64ddb6e8076" x="577.6018099547512" y="62" width="122.17194570135747" height="130" stroke="#29123b" stroke-dasharray="5,3" stroke-width="1px" fill="#e7004c" opacity="0.5" style=""/><rect class="activity" id="a4535cc34-194d-4970-b7d5-307a4d66cb36" x="272.17194570135746" y="62" width="366.51583710407243" height="130" stroke="#29123b" stroke-dasharray="5,3" stroke-width="1px" fill="#ff9664" opacity="0.5" style=""/><rect class="activity" id="af42eb387-f8aa-4aa6-9fad-2f3f00b3e6a5" x="150" y="256" width="794.1176470588235" height="70" stroke="#29123b" stroke-dasharray="5,3" stroke-width="1px" fill="#00bbcc" opacity="0.5" style=""/><rect class="participation" id="pfd9ca9e6-bdc6-4375-b3f7-22ffa40106a2d2b7ea0f-598b-4b12-8f29-e44631c17e86" data-individual-id="d2b7ea0f-598b-4b12-8f29-e44631c17e86" data-row-id="aff3b7c0-ceb5-45d6-823a-55f9f7750020" data-activity-id="fd9ca9e6-bdc6-4375-b3f7-22ffa40106a2" x="150" y="117" width="244.34388732910156" height="20" stroke="#29123b" stroke-dasharray="5,3" stroke-width="1px" fill="#F2F2F2" opacity="0.5"/><rect class="participation" id="pf9342ca8-6493-4851-9c77-f64ddb6e807683cdacdc-9fe8-4ba3-97c4-599d8ed221e1" data-individual-id="83cdacdc-9fe8-4ba3-97c4-599d8ed221e1" data-row-id="aff3b7c0-ceb5-45d6-823a-55f9f7750020" data-activity-id="f9342ca8-6493-4851-9c77-f64ddb6e8076" x="577.601806640625" y="117" width="122.17194366455078" height="20" stroke="#29123b" stroke-dasharray="5,3" stroke-width="1px" fill="#F2F2F2" opacity="0.5" style=""/><rect class="participation" id="p4535cc34-194d-4970-b7d5-307a4d66cb36cd90635f-106f-44a1-87d9-cfae1a464153" data-individual-id="cd90635f-106f-44a1-87d9-cfae1a464153" data-row-id="ea7aeaec-ef96-47cc-a985-a3d0d0cf8ce3" data-activity-id="4535cc34-194d-4970-b7d5-307a4d66cb36" x="272.17193603515625" y="87" width="366.5158386230469" height="20" stroke="#29123b" stroke-dasharray="5,3" stroke-width="1px" fill="#F2F2F2" opacity="0.5"/><rect class="participation" id="pf42eb387-f8aa-4aa6-9fad-2f3f00b3e6a5306af442-18cf-4d5c-aa7e-d4e9b1851aeb" data-individual-id="306af442-18cf-4d5c-aa7e-d4e9b1851aeb" data-row-id="306af442-18cf-4d5c-aa7e-d4e9b1851aeb" data-activity-id="f42eb387-f8aa-4aa6-9fad-2f3f00b3e6a5" x="150" y="259" width="794.11767578125" height="64" stroke="#29123b" stroke-dasharray="5,3" stroke-width="1px" fill="#F2F2F2" opacity="0.5" style=""/><defs class="axisTriangle"><marker id="triangle" refX="0" refY="10" markerWidth="20" markerHeight="20" markerUnits="userSpaceOnUse" orient="auto" viewbox="0 0 20 20"><path d="M 0 0 L 20 10 L 0 20 z" style="fill: rgb(127, 127, 127);"/></marker></defs><line class="axisLine" x1="20" y1="403" x2="970" y2="403" marker-end="url(#triangle)" stroke="#7F7F7F" stroke-width="15"/><text class="axisLable" x="470" y="408" stroke="white" fill="white" font-size="0.8em" font-weight="200" text-anchor="start" font-family="Roboto, Arial, sans-serif">Time</text><line class="axisLine" x1="20" y1="410.5" x2="20" y2="30" marker-end="url(#triangle)" stroke="#7F7F7F" stroke-width="15"/><text class="axisLable" x="44" y="231.5" stroke="white" fill="white" font-size="0.8em" font-weight="200" text-anchor="middle" font-family="Roboto, Arial, sans-serif" transform="rotate(270 24 231.5)">Space</text><text class="activityLabel" id="alfd9ca9e6-bdc6-4375-b3f7-22ffa40106a2" x="272.17194570135746" y="131" text-anchor="middle" font-family="Roboto, Arial, sans-serif" font-size="0.7em" fill="#441d62">Inspect Vision Station A</text><text class="activityLabel" id="alf9342ca8-6493-4851-9c77-f64ddb6e8076" x="638.68778280543" y="131" text-anchor="middle" font-family="Roboto, Arial, sans-serif" font-size="0.7em" fill="#441d62">Inspect Vision Station B</text><text class="activityLabel" id="al4535cc34-194d-4970-b7d5-307a4d66cb36" x="455.4298642533937" y="131" text-anchor="middle" font-family="Roboto, Arial, sans-serif" font-size="0.7em" fill="#441d62">PLC Check</text><text class="activityLabel" id="alf42eb387-f8aa-4aa6-9fad-2f3f00b3e6a5" x="547.0588235294117" y="295" text-anchor="middle" font-family="Roboto, Arial, sans-serif" font-size="0.7em" fill="#441d62">Run Crude Distillation Unit</text></g><g transform="translate(872, 427)"><rect x="0" y="0" width="120" height="91" fill="white" stroke="rgba(0,0,0,0.175)" stroke-width="0.5" rx="3"/><text x="6" y="15" font-family="Roboto, Arial, sans-serif" font-size="9" font-weight="500" fill="#212529">Entity Legend</text><g><text x="11" y="29.65" text-anchor="middle" font-size="9" fill="#333">▣</text><text x="20" y="29.5" font-family="Roboto, Arial, sans-serif" font-size="7.5" fill="#111827">System</text></g><g><text x="11" y="42.65" text-anchor="middle" font-size="9" fill="#333">◇</text><text x="20" y="42.5" font-family="Roboto, Arial, sans-serif" font-size="7.5" fill="#111827">System Component</text></g><g><text x="11" y="55.65" text-anchor="middle" font-size="9" fill="#333">○</text><text x="20" y="55.5" font-family="Roboto, Arial, sans-serif" font-size="7.5" fill="#111827">Individual</text></g><g><rect x="6" y="61.5" width="10" height="7.5" rx="1.5" fill="url(#exportInstallHatch)" stroke="#666" stroke-width="0.8"/><text x="20" y="68.5" font-family="Roboto, Arial, sans-serif" font-size="7.5" fill="#111827">Installation Period</text></g><g><rect x="6" y="74.5" width="10" height="7.5" rx="1.5" fill="none" stroke="#666" stroke-width="1" stroke-dasharray="3,2"/><text x="20" y="81.5" font-family="Roboto, Arial, sans-serif" font-size="7.5" fill="#111827">Currently Installed</text></g></g></svg>