<svg xmlns="http://www.w3.org/2000/svg" viewBox="0 0 1000 270" style="min-width: 100%; max-width: 100%;"><g id="activity-diagram-group" transform="translate(0,0) scale(1)"><defs><mask id="activity-mask" maskUnits="userSpaceOnUse"><rect x="-50000" y="-50000" width="100000" height="100000" fill="white"/><rect x="-50000" y="35" width="100000" height="64" fill="black"/><path d="M 33.333333333333336 35 l 936.6666666666666 0l 6.666666666666667 32 -6.666666666666667 32l -936.6666666666666 0l 6.666666666666667 -32 -6.666666666666667 -32Z" fill="white"/><rect x="-50000" y="57" width="100000" height="20" fill="black"/><path d="M 33.833333333333336 57 l 935.6666666666666 0l 6.666666666666667 10 -6.666666666666667 10l -935.6666666666666 0l 6.666666666666667 -10 -6.666666666666667 -10Z" fill="white"/><rect x="-50000" y="109" width="100000" height="20" fill="black"/><path d="M 33.333333333333336 109 l 92.66666666666666 0l 0 20l -92.66666666666666 0l 6.666666666666667 -10 -6.666666666666667 -10Z M 390.57754010695186 109 l 24.192513368983953 0l 0 20l -24.192513368983953 0Z M 679.3475935828877 109 l 24.192513368983896 0l 0 20l -24.192513368983896 0Z M 968.1176470588235 109 l 1.882352941176464 0l 6.666666666666667 10 -6.666666666666667 10l -1.882352941176464 0Z" fill="white"/></mask><pattern id="installHatch" width="8" height="8" patternUnits="userSpaceOnUse" patternTransform="rotate(45)"><rect width="8" height="8" fill="#d3d3d3"/><line x1="0" y1="0" x2="0" y2="8" stroke="#666" stroke-width="1.5"/></pattern><pattern id="installHatchHighlight" width="8" height="8" patternUnits="userSpaceOnUse" patternTransform="rotate(45)"><rect width="8" height="8" fill="#d3d3d3"/><line x1="0" y1="0" x2="0" y2="8" stroke="#444" stroke-width="2"/></pattern><clipPath id="installClip-1a665b25-6665-4417-9c71-a8302943d1d6"><path d="M 33.833333333333336 57 l 935.6666666666666 0l 6.666666666666667 10 -6.666666666666667 10l -935.6666666666666 0l 6.666666666666667 -10 -6.666666666666667 -10Z"/></clipPath><pattern id="exportInstallHatch" width="4" height="4" patternUnits="userSpaceOnUse" patternTransform="rotate(45)"><line x1="0" y1="0" x2="0" y2="4" stroke="#444" stroke-width="1.5"/></pattern></defs><path class="individual" id="i8490a6c8-78e1-41d8-b45f-0d151a5de24d" d="M 33.333333333333336 35 l 936.6666666666666 0l 6.666666666666667 32 -6.666666666666667 32l -936.6666666666666 0l 6.666666666666667 -32 -6.666666666666667 -32Z" stroke="#7F7F7F" stroke-width="1px" fill="white" data-row-y="35" style="cursor: default;"/><path class="individual" id="i1a665b25-6665-4417-9c71-a8302943d1d6" d="M 33.833333333333336 57 l 935.6666666666666 0l 6.666666666666667 10 -6.666666666666667 10l -935.6666666666666 0l 6.666666666666667 -10 -6.666666666666667 -10Z" stroke="#7F7F7F" stroke-width="1px" fill="white" data-row-y="57" style="cursor: default;"/><path class="individual" id="i6a99802a-c2a8-444b-81fc-e7c3058b2df1" d="M 33.333333333333336 109 l 92.66666666666666 0l 0 20l -92.66666666666666 0l 6.666666666666667 -10 -6.666666666666667 -10Z M 390.57754010695186 109 l 24.192513368983953 0l 0 20l -24.192513368983953 0Z M 679.3475935828877 109 l 24.192513368983896 0l 0 20l -24.192513368983896 0Z M 968.1176470588235 109 l 1.882352941176464 0l 6.666666666666667 10 -6.666666666666667 10l -1.882352941176464 0Z" stroke="#7F7F7F" stroke-width="1px" fill="#B1B1B0" data-row-y="109" style="cursor: default;"/><path class="installDash" d="M 126 109 l 264.57754010695186 0l 0 20l -264.57754010695186 0Z" fill="none" stroke="#7F7F7F" stroke-width="1px" stroke-dasharray="5,3" data-individual-id="6a99802a-c2a8-444b-81fc-e7c3058b2df1" style="pointer-events: none;"/><path class="installDash" d="M 414.7700534759358 109 l 264.5775401069519 0l 0 20l -264.5775401069519 0Z" fill="none" stroke="#7F7F7F" stroke-width="1px" stroke-dasharray="5,3" data-individual-id="6a99802a-c2a8-444b-81fc-e7c3058b2df1" style="pointer-events: none;"/><path class="installDash" d="M 703.5401069518716 109 l 264.5775401069519 0l 0 20l -264.5775401069519 0Z" fill="none" stroke="#7F7F7F" stroke-width="1px" stroke-dasharray="5,3" data-individual-id="6a99802a-c2a8-444b-81fc-e7c3058b2df1" style="pointer-events: none;"/><text class="individualLabel" id="il8490a6c8-78e1-41d8-b45f-0d151a5de24d" x="45" y="50" text-anchor="start" font-family="Roboto, Arial, sans-serif" font-size="0.8em" style="cursor: default;">▣ System 1</text><text class="individualLabel" id="il1a665b25-6665-4417-9c71-a8302943d1d6" x="45" y="72" text-anchor="start" font-family="Roboto, Arial, sans-serif" font-size="0.8em" style="cursor: default;">◇ System comp 1</text><text class="individualLabel" id="il6a99802a-c2a8-444b-81fc-e7c3058b2df1" x="45" y="124" text-anchor="start" font-family="Roboto, Arial, sans-serif" font-size="0.8em" style="cursor: default;">○ Individual 1</text><rect class="installHatch" x="150" y="57" width="216.57754010695186" height="20" fill="url(#installHatch)" stroke="#7F7F7F" stroke-width="2" opacity="1" clip-path="url(#installClip-1a665b25-6665-4417-9c71-a8302943d1d6)" data-installed-id="6a99802a-c2a8-444b-81fc-e7c3058b2df1" data-target-id="1a665b25-6665-4417-9c71-a8302943d1d6"/><path class="installConnectorRibbon" d="M 126 109&#10;L 126 129&#10;L 150 77&#10;L 150 57 Z" fill="#8d8d8b" fill-opacity="1" stroke="#7F7F7F" stroke-width="1.5" data-ribbon-kind="start" data-main-x="150" data-side-x="126" data-lower-top="109" data-lower-bottom="129" data-upper-top="57" data-upper-bottom="77" data-installed-id="6a99802a-c2a8-444b-81fc-e7c3058b2df1" data-target-id="1a665b25-6665-4417-9c71-a8302943d1d6"/><path class="installConnectorRibbon" d="M 366.57754010695186 57&#10;L 366.57754010695186 77&#10;L 390.57754010695186 129&#10;L 390.57754010695186 109 Z" fill="#8d8d8b" fill-opacity="1" stroke="#7F7F7F" stroke-width="1.5" data-ribbon-kind="end" data-main-x="366.57754010695186" data-side-x="390.57754010695186" data-lower-top="109" data-lower-bottom="129" data-upper-top="57" data-upper-bottom="77" data-installed-id="6a99802a-c2a8-444b-81fc-e7c3058b2df1" data-target-id="1a665b25-6665-4417-9c71-a8302943d1d6"/><rect class="installHatch" x="438.7700534759358" y="57" width="216.5775401069518" height="20" fill="url(#installHatch)" stroke="#7F7F7F" stroke-width="2" opacity="1" clip-path="url(#installClip-1a665b25-6665-4417-9c71-a8302943d1d6)" data-installed-id="6a99802a-c2a8-444b-81fc-e7c3058b2df1" data-target-id="1a665b25-6665-4417-9c71-a8302943d1d6"/><path class="installConnectorRibbon" d="M 414.7700534759358 109&#10;L 414.7700534759358 129&#10;L 438.7700534759358 77&#10;L 438.7700534759358 57 Z" fill="#8d8d8b" fill-opacity="1" stroke="#7F7F7F" stroke-width="1.5" data-ribbon-kind="start" data-main-x="438.7700534759358" data-side-x="414.7700534759358" data-lower-top="109" data-lower-bottom="129" data-upper-top="57" data-upper-bottom="77" data-installed-id="6a99802a-c2a8-444b-81fc-e7c3058b2df1" data-target-id="1a665b25-6665-4417-9c71-a8302943d1d6"/><path class="installConnectorRibbon" d="M 655.3475935828876 57&#10;L 655.3475935828876 77&#10;L 679.3475935828876 129&#10;L 679.3475935828876 109 Z" fill="#8d8d8b" fill-opacity="1" stroke="#7F7F7F" stroke-width="1.5" data-ribbon-kind="end" data-main-x="655.3475935828876" data-side-x="679.3475935828876" data-lower-top="109" data-lower-bottom="129" data-upper-top="57" data-upper-bottom="77" data-installed-id="6a99802a-c2a8-444b-81fc-e7c3058b2df1" data-target-id="1a665b25-6665-4417-9c71-a8302943d1d6"/><rect class="installHatch" x="727.5401069518716" y="57" width="216.5775401069518" height="20" fill="url(#installHatch)" stroke="#7F7F7F" stroke-width="2" opacity="1" clip-path="url(#installClip-1a665b25-6665-4417-9c71-a8302943d1d6)" data-installed-id="6a99802a-c2a8-444b-81fc-e7c3058b2df1" data-target-id="1a665b25-6665-4417-9c71-a8302943d1d6"/><path class="installConnectorRibbon" d="M 703.5401069518716 109&#10;L 703.5401069518716 129&#10;L 727.5401069518716 77&#10;L 727.5401069518716 57 Z" fill="#8d8d8b" fill-opacity="1" stroke="#7F7F7F" stroke-width="1.5" data-ribbon-kind="start" data-main-x="727.5401069518716" data-side-x="703.5401069518716" data-lower-top="109" data-lower-bottom="129" data-upper-top="57" data-upper-bottom="77" data-installed-id="6a99802a-c2a8-444b-81fc-e7c3058b2df1" data-target-id="1a665b25-6665-4417-9c71-a8302943d1d6"/><path class="installConnectorRibbon" d="M 944.1176470588234 57&#10;L 944.1176470588234 77&#10;L 968.1176470588234 129&#10;L 968.1176470588234 109 Z" fill="#8d8d8b" fill-opacity="1" stroke="#7F7F7F" stroke-width="1.5" data-ribbon-kind="end" data-main-x="944.1176470588234" data-side-x="968.1176470588234" data-lower-top="109" data-lower-bottom="129" data-upper-top="57" data-upper-bottom="77" data-installed-id="6a99802a-c2a8-444b-81fc-e7c3058b2df1" data-target-id="1a665b25-6665-4417-9c71-a8302943d1d6"/><defs class="axisTriangle"><marker id="triangle" refX="0" refY="10" markerWidth="20" markerHeight="20" markerUnits="userSpaceOnUse" orient="auto" viewbox="0 0 20 20"><path d="M 0 0 L 20 10 L 0 20 z" style="fill: rgb(127, 127, 127);"/></marker></defs><line class="axisLine" x1="20" y1="149" x2="970" y2="149" marker-end="url(#triangle)" stroke="#7F7F7F" stroke-width="15"/><text class="axisLable" x="470" y="154" stroke="white" fill="white" font-size="0.8em" font-weight="200" text-anchor="start" font-family="Roboto, Arial, sans-serif">Time</text><line class="axisLine" x1="20" y1="156.5" x2="20" y2="30" marker-end="url(#triangle)" stroke="#7F7F7F" stroke-width="15"/><text class="axisLable" x="44" y="104.5" stroke="white" fill="white" font-size="0.8em" font-weight="200" text-anchor="middle" font-family="Roboto, Arial, sans-serif" transform="rotate(270 24 104.5)">Space</text></g><g transform="translate(872, 173)"><rect x="0" y="0" width="120" height="91" fill="white" stroke="rgba(0,0,0,0.175)" stroke-width="0.5" rx="3"/><text x="6" y="15" font-family="Roboto, Arial, sans-serif" font-size="9" font-weight="500" fill="#212529">Entity Legend</text><g><text x="11" y="29.65" text-anchor="middle" font-size="9" fill="#333">▣</text><text x="20" y="29.5" font-family="Roboto, Arial, sans-serif" font-size="7.5" fill="#111827">System</text></g><g><text x="11" y="42.65" text-anchor="middle" font-size="9" fill="#333">◇</text><text x="20" y="42.5" font-family="Roboto, Arial, sans-serif" font-size="7.5" fill="#111827">System Component</text></g><g><text x="11" y="55.65" text-anchor="middle" font-size="9" fill="#333">○</text><text x="20" y="55.5" font-family="Roboto, Arial, sans-serif" font-size="7.5" fill="#111827">Individual</text></g><g><rect x="6" y="61.5" width="10" height="7.5" rx="1.5" fill="url(#exportInstallHatch)" stroke="#666" stroke-width="0.8"/><text x="20" y="68.5" font-family="Roboto, Arial, sans-serif" font-size="7.5" fill="#111827">Installation Period</text></g><g><rect x="6" y="74.5" width="10" height="7.5" rx="1.5" fill="none" stroke="#666" stroke-width="1" stroke-dasharray="3,2"/><text x="20" y="81.5" font-family="Roboto, Arial, sans-serif" font-size="7.5" fill="#111827">Currently Installed</text></g></g></svg>